Coordinates
version=1
nRows=10
nColumns=40
inDegrees=yes

Units are S.I. units (second, meters, Newtons, ...)
If the header above contains a line with 'inDegrees', this indicates whether rotational values are in degrees (yes) or radians (no).

endheader
time	pelvis_tilt	pelvis_list	pelvis_rotation	pelvis_tx	pelvis_ty	pelvis_tz	hip_flexion_r	hip_adduction_r	hip_rotation_r	knee_angle_r	knee_angle_r_beta	ankle_angle_r	subtalar_angle_r	mtp_angle_r	hip_flexion_l	hip_adduction_l	hip_rotation_l	knee_angle_l	knee_angle_l_beta	ankle_angle_l	subtalar_angle_l	mtp_angle_l	lumbar_extension	lumbar_bending	lumbar_rotation	arm_flex_r	arm_add_r	arm_rot_r	elbow_flex_r	pro_sup_r	wrist_flex_r	wrist_dev_r	arm_flex_l	arm_add_l	arm_rot_l	elbow_flex_l	pro_sup_l	wrist_flex_l	wrist_dev_l
     11.65833333	    -21.66171715	      0.99924716	      7.00979588	     -0.25218969	      1.02785958	      0.02078551	     81.54759748	    -11.27552629	      2.77257545	     67.32074992	      1.17496874	    -14.73206796	    -22.38314397	      0.00000000	     84.49383331	     -2.01588882	      6.93493627	    105.61853405	      1.84339117	    -11.64038159	    -11.27042499	      0.00000000	    -32.49001553	     -0.99526348	     -3.16092831	     86.22649501	    -13.76601886	     61.17035256	     15.60850051	     89.14580595	      0.00000000	      0.00000000	     88.78061026	      2.06900064	     24.03386041	      9.47587321	     89.42520234	      0.00000000	      0.00000000
     11.66666667	    -21.64797055	      1.34799488	      7.08723281	     -0.25151024	      1.02814107	      0.02063940	     79.93879349	    -11.48423760	      2.70971874	     65.38762939	      1.14122942	    -14.97664596	    -22.10034987	      0.00000000	     85.58193688	     -1.72753307	      6.86609288	    107.08712790	      1.86902297	    -11.30226476	    -11.07856313	      0.00000000	    -32.54047687	     -1.39474140	     -3.41281087	     85.95058151	    -13.77070723	     59.84917963	     15.72256043	     89.16543312	      0.00000000	      0.00000000	     88.77188889	      2.15574724	     23.22011815	      9.51507758	     89.42779733	      0.00000000	      0.00000000
     11.67500000	    -21.53676701	      1.53384214	      6.94253084	     -0.25083235	      1.02847422	      0.02086738	     78.25934377	    -11.49083859	      2.38033867	     63.47009621	      1.10776216	    -15.60174314	    -22.04114269	      0.00000000	     86.64485996	     -1.72990915	      6.89769890	    108.59014138	      1.89525550	    -10.87763268	    -11.17540716	      0.00000000	    -32.67566429	     -1.74091730	     -3.35442231	     85.93717929	    -13.89907352	     60.66741416	     15.67152257	     89.15847762	      0.00000000	      0.00000000	     88.77168496	      2.23387197	     23.21980515	      9.50541740	     89.42588854	      0.00000000	      0.00000000
     11.68333333	    -21.28586645	      1.50252585	      6.80217755	     -0.24996961	      1.02893818	      0.02145656	     76.33192501	    -11.41412851	      1.76750106	     61.51568525	      1.07365125	    -15.99198676	    -21.83474711	      0.00000000	     87.65065396	     -1.85068930	      7.23504280	    110.09252606	      1.92147706	    -10.34263122	    -11.01595694	      0.00000000	    -32.92630818	     -1.90076713	     -3.21610494	     85.89973600	    -13.93493407	     61.19851946	     15.54627222	     89.14289223	      0.00000000	      0.00000000	     88.73989920	      2.20788728	     24.29003672	      9.50255256	     89.42389733	      0.00000000	      0.00000000
     11.69166667	    -21.31352638	      1.70269401	      6.74412287	     -0.24940858	      1.02907688	      0.02166169	     74.76875638	    -11.46486620	      1.49780095	     59.70056035	      1.04197134	    -16.36835752	    -21.82891395	      0.00000000	     88.89102579	     -1.82160099	      7.19894030	    111.38851760	      1.94409638	    -10.27227130	    -10.80519606	      0.00000000	    -32.91351542	     -2.25679485	     -3.25073663	     85.59301949	    -13.97658119	     59.65769967	     15.72088697	     89.15570836	      0.00000000	      0.00000000	     88.72449141	      2.28875908	     24.19953205	      9.50749636	     89.42347570	      0.00000000	      0.00000000
     11.70000000	    -20.98803271	      1.88773883	      6.62280943	     -0.24857881	      1.02969059	      0.02203789	     72.80971328	    -11.45440036	      1.21127580	     57.92357933	      1.01095717	    -16.51106420	    -21.36991528	      0.00000000	     89.70958160	     -1.90018887	      7.28173832	    112.65418217	      1.96618640	     -9.78645032	    -10.26133678	      0.00000000	    -33.27742080	     -2.58648629	     -3.23854831	     85.71351120	    -14.04023116	     61.47574370	     15.42440651	     89.14176175	      0.00000000	      0.00000000	     88.73054055	      2.30018076	     24.68383689	      9.48682020	     89.42368444	      0.00000000	      0.00000000
     11.70833333	    -20.87070743	      2.09591040	      6.51990553	     -0.24789491	      1.03008343	      0.02220261	     71.13849941	    -11.47176743	      0.97300804	     56.24629537	      0.98168305	    -16.86929736	    -21.36057592	      0.00000000	     90.78783939	     -1.85490553	      7.21555162	    113.83790071	      1.98684618	     -9.62393145	    -10.78286548	      0.00000000	    -33.42660057	     -2.93741971	     -3.24776085	     85.38873738	    -14.08488702	     59.52185052	     15.69737330	     89.15888788	      0.00000000	      0.00000000	     88.73647741	      2.39229552	     24.45929434	      9.48695430	     89.42063284	      0.00000000	      0.00000000
     11.71666667	    -20.90382822	      2.23679551	      6.47099336	     -0.24757516	      1.03043734	      0.02258460	     69.64485509	    -11.48127548	      0.70311513	     54.60349651	      0.95301080	    -17.27773608	    -21.28331485	      0.00000000	     92.13758313	     -1.89193136	      7.17646699	    114.92348715	      2.00579324	     -9.48602532	    -11.07987049	      0.00000000	    -33.43538994	     -3.24423873	     -3.26243469	     85.19690202	    -14.13264243	     58.72346502	     15.77648346	     89.16668481	      0.00000000	      0.00000000	     88.72603326	      2.44460203	     24.39953919	      9.56723093	     89.42351997	      0.00000000	      0.00000000
     11.72500000	    -20.58494380	      2.46968993	      6.38017970	     -0.24681114	      1.03109387	      0.02283748	     67.79318390	    -11.56567570	      0.42764144	     53.06694172	      0.92619286	    -17.23297248	    -20.64992250	      0.00000000	     93.03944575	     -1.86164278	      7.16659239	    116.03898935	      2.02526242	     -8.60431767	    -10.73424489	      0.00000000	    -33.80355694	     -3.58698021	     -3.34552209	     85.41495434	    -14.17375614	     61.30152825	     15.39580818	     89.13618793	      0.00000000	      0.00000000	     88.72780652	      2.40599369	     24.82818018	      9.59303390	     89.42305836	      0.00000000	      0.00000000
     11.73333333	    -20.50256753	      2.66917507	      6.32581963	     -0.24632218	      1.03158933	      0.02295819	     66.24568920	    -11.67064249	      0.12080924	     51.59833887	      0.90056090	    -17.53116855	    -20.45160697	      0.00000000	     94.26104655	     -1.75509099	      7.08010066	    116.96063099	      2.04134811	     -8.79921826	    -11.38312526	      0.00000000	    -33.93443685	     -3.90875760	     -3.41409227	     85.04840300	    -14.15967022	     58.69957872	     15.70564354	     89.16130761	      0.00000000	      0.00000000	     88.72329666	      2.47195334	     24.24080075	      9.65537496	     89.42318979	      0.00000000	      0.00000000
